<?xml version="1.0" standalone="no"?>
<!DOCTYPE svg PUBLIC "-//W3C//DTD SVG 20010904//EN"
 "http://www.w3.org/TR/2001/REC-SVG-20010904/DTD/svg10.dtd">
<svg version="1.0" xmlns="http://www.w3.org/2000/svg"
 width="588.000000pt" height="344.000000pt" viewBox="0 0 588.000000 344.000000"
 preserveAspectRatio="xMidYMid meet">

<g transform="translate(0.000000,344.000000) scale(0.100000,-0.100000)"
fill="#000000" stroke="none">
<path d="M826 1054 c-9 -8 -16 -30 -16 -48 0 -46 -56 -238 -92 -316 l-30 -64
16 -53 c18 -55 24 -60 56 -43 14 7 55 6 137 -4 206 -25 282 -2 208 63 -20 17
-39 31 -43 31 -45 2 -156 12 -187 18 -48 9 -49 4 5 192 22 74 42 154 46 176 6
40 5 42 -26 53 -44 15 -56 14 -74 -5z"/>
<path d="M1217 1027 c-20 -35 -24 -51 -20 -98 4 -36 1 -65 -8 -80 -12 -22 -18
-85 -22 -254 l-2 -60 55 -7 c168 -22 177 -22 185 1 10 33 -38 84 -92 96 -24 6
-45 12 -45 15 -1 3 2 24 5 48 7 40 9 42 45 44 20 1 51 2 69 3 18 1 44 10 59
20 35 23 43 10 42 -70 -2 -73 20 -117 73 -153 43 -30 82 -25 150 19 91 58 171
171 186 262 13 80 -55 205 -129 239 -27 13 -45 13 -100 5 -56 -9 -68 -15 -78
-36 -6 -14 -24 -41 -39 -60 -16 -20 -34 -54 -41 -76 -23 -73 -26 -76 -60 -58
-17 8 -38 12 -46 9 -9 -3 -35 -1 -60 5 -44 11 -44 12 -44 55 0 51 8 57 103 68
64 8 86 30 67 66 -17 32 -41 39 -137 39 l-92 0 -24 -42z m538 -157 c8 -16 15
-38 15 -50 0 -31 -45 -113 -81 -150 -31 -30 -34 -31 -46 -14 -7 10 -13 38 -13
63 0 25 -3 55 -6 66 -3 14 9 39 36 78 36 49 44 56 60 47 11 -6 27 -24 35 -40z"/>
<path d="M2229 1037 c-18 -22 -28 -49 -32 -87 -3 -30 -13 -80 -23 -110 l-17
-55 -20 45 c-13 28 -20 64 -20 95 1 60 -9 75 -51 75 -42 0 -77 -37 -87 -92 -4
-24 -12 -61 -18 -83 -5 -22 -15 -80 -21 -130 -6 -49 -13 -99 -15 -110 -3 -11
4 -30 15 -43 19 -23 20 -23 44 -5 15 11 26 32 30 56 4 20 14 56 22 78 20 48
26 44 69 -44 26 -54 34 -62 61 -65 26 -3 35 3 57 36 30 42 67 139 67 174 1 22
1 22 12 4 8 -14 7 -47 -2 -122 -6 -57 -9 -107 -6 -112 6 -10 113 -25 191 -26
44 -1 50 2 53 20 5 34 -46 81 -97 89 l-43 7 5 40 c3 22 9 44 14 49 5 5 37 11
70 13 73 6 123 28 123 56 0 25 -44 54 -72 47 -12 -3 -41 -1 -65 6 -42 11 -44
13 -39 41 3 15 6 37 6 46 0 19 14 24 108 35 45 6 53 10 59 33 5 20 0 30 -20
48 -24 20 -37 23 -122 23 -81 -1 -97 -3 -102 -17 -4 -9 -15 -29 -25 -45 -16
-23 -18 -33 -9 -60 12 -37 -5 -117 -27 -125 -9 -3 -12 22 -13 95 -2 151 -15
177 -60 120z"/>
<path d="M2800 1045 c-39 -29 -52 -50 -76 -120 -9 -27 -30 -65 -46 -83 -18
-21 -28 -43 -26 -60 1 -15 -8 -49 -20 -76 -24 -54 -30 -154 -10 -174 33 -33
72 0 93 78 17 63 19 66 69 74 l39 7 -7 -49 c-5 -38 -2 -59 11 -86 9 -20 20
-36 25 -36 13 0 55 92 72 157 20 78 20 143 0 218 -9 33 -22 79 -28 102 -10 37
-37 72 -57 73 -3 0 -21 -11 -39 -25z m20 -237 c0 -11 -8 -18 -20 -18 -23 0
-23 0 -9 37 8 22 12 24 19 13 6 -8 10 -23 10 -32z"/>
<path d="M3037 1053 c-16 -18 -22 -47 -57 -264 -26 -162 -24 -257 5 -262 16
-3 64 94 71 146 4 26 10 50 14 52 4 3 33 0 65 -7 66 -13 69 -18 82 -122 4 -40
13 -71 20 -74 14 -4 51 72 80 168 16 53 19 93 19 215 l-1 149 -29 10 c-25 9
-31 7 -52 -17 -17 -20 -22 -33 -15 -45 9 -17 -1 -187 -12 -198 -7 -7 -106 13
-126 25 -11 7 -12 25 -1 109 7 55 10 107 7 116 -8 21 -50 20 -70 -1z"/>
<path d="M3415 1027 c-20 -36 -23 -50 -18 -98 4 -39 1 -64 -10 -85 -9 -17 -16
-60 -17 -104 -1 -41 -2 -104 -3 -140 l-2 -65 55 -7 c168 -22 177 -22 185 0 11
36 -40 89 -92 97 -23 3 -45 10 -47 14 -3 4 0 26 6 48 l10 41 74 7 c76 8 124
31 124 60 0 18 -57 48 -77 41 -8 -3 -34 -1 -59 5 -44 11 -44 12 -44 55 0 51 9
57 104 71 48 7 60 12 67 31 7 18 4 28 -15 47 -22 22 -32 24 -120 24 l-96 -1
-25 -41z"/>
<path d="M3817 1049 c-8 -13 -15 -35 -15 -49 0 -14 -9 -56 -20 -95 -11 -38
-23 -86 -27 -105 -4 -19 -15 -51 -26 -70 -45 -86 -49 -106 -32 -160 17 -52 22
-56 53 -40 14 7 55 6 137 -4 199 -24 277 -3 216 58 -29 29 -30 30 -162 46 -52
6 -100 14 -106 18 -9 5 -2 42 26 142 21 74 45 161 52 192 16 66 11 75 -46 85
-29 4 -38 1 -50 -18z"/>
<path d="M4199 1047 c-21 -23 -26 -72 -8 -83 18 -11 3 -99 -22 -133 -21 -28
-21 -33 -9 -71 11 -33 11 -50 1 -89 -10 -41 -9 -55 6 -101 10 -30 23 -55 30
-58 25 -8 54 63 79 195 4 20 10 21 81 20 91 0 133 17 163 66 42 68 13 175 -59
224 -42 28 -85 40 -174 46 -60 4 -71 2 -88 -16z m199 -113 c26 -18 44 -57 36
-78 -8 -20 -50 -36 -94 -36 l-40 0 0 49 c0 27 3 56 6 65 8 21 63 21 92 0z"/>
<path d="M4618 1022 c-20 -37 -24 -52 -16 -72 10 -27 3 -82 -15 -115 -6 -11
-13 -63 -14 -115 -2 -52 -5 -115 -6 -140 l-2 -45 65 -8 c36 -5 90 -10 120 -11
52 -1 55 0 58 24 4 34 -37 72 -91 85 -41 10 -42 11 -41 48 1 21 6 43 11 48 5
5 37 11 70 13 61 5 115 25 129 48 12 18 -45 61 -72 54 -34 -9 -116 15 -109 32
3 7 5 29 5 47 0 37 1 37 108 50 45 6 53 10 58 31 5 18 0 32 -16 49 -21 22 -30
24 -119 24 l-97 -1 -26 -46z"/>
<path d="M4958 1051 c-38 -30 -49 -75 -47 -183 1 -59 -2 -102 -10 -117 -7 -13
-10 -33 -6 -45 4 -11 10 -61 14 -111 6 -88 7 -90 31 -90 21 0 28 8 44 53 l19
53 26 -30 c26 -30 275 -177 308 -183 26 -4 43 10 43 36 0 26 -82 103 -155 146
-55 32 -151 114 -165 141 -9 17 -6 22 21 37 46 24 108 81 125 113 18 36 18 99
0 124 -22 32 -106 69 -166 73 -45 3 -60 0 -82 -17z m100 -103 c18 -18 15 -26
-18 -43 -28 -15 -30 -14 -30 4 0 46 23 64 48 39z"/>
</g>
</svg>
